# xmcd
#
# Track frame offsets:
#	150
#	10902
#	33515
#	56897
#	87879
#	104920
#	120175
#	153562
#
# Disc length: 2350 seconds
#
# Revision: 28
# Processed by: cddbd v1.5.2PL0 Copyright (c) Steve Scherf et al.
# Submitted via: audiograbber 1.83.01
#
DISCID=63092c08
DTITLE=Jean-Michel Jarre - Equinoxe [Remastered]
DYEAR=1978
DGENRE=Instrumental
TTITLE0=1. Equinoxe Part I.
TTITLE1=2. Equinoxe Part II.
TTITLE2=3. Equinoxe Part III.
TTITLE3=4. Equinoxe Part IV.
TTITLE4=5. Equinoxe Part V.
TTITLE5=6. Equinoxe Part VI.
TTITLE6=7. Equinoxe Part VII.
TTITLE7=8. Equinoxe Part VIII.
EXTD=
EXTT0=
EXTT1=
EXTT2=
EXTT3=
EXTT4=
EXTT5=
EXTT6=
EXTT7=
PLAYORDER=
